<svg width="72" height="72" viewBox="0 0 150 150" xmlns="http://www.w3.org/2000/svg">
  <rect width="150" height="150" rx="28" fill="#f8e0c4"/>
  <circle cx="75" cy="75" r="55" fill="none" stroke="#9b6b3e" stroke-width="6"/>
  <circle cx="75" cy="75" r="50" fill="none" stroke="#c79b6b" stroke-width="3"/>

  <!-- left paw -->
  <path d="M45 84c0-7 5-13 11-13s11 6 11 13-5 11-11 11-11-4-11-11z" fill="#9b6b3e"/>
  <circle cx="40" cy="69" r="4" fill="#9b6b3e"/>
  <circle cx="49" cy="63" r="4" fill="#9b6b3e"/>
  <circle cx="59" cy="63" r="4" fill="#9b6b3e"/>
  <circle cx="67" cy="69" r="4" fill="#9b6b3e"/>

  <!-- right paw -->
  <path d="M92 96c0-7 5-13 11-13s11 6 11 13-5 11-11 11-11-4-11-11z" fill="#9b6b3e"/>
  <circle cx="87" cy="81" r="4" fill="#9b6b3e"/>
  <circle cx="96" cy="75" r="4" fill="#9b6b3e"/>
  <circle cx="106" cy="75" r="4" fill="#9b6b3e"/>
  <circle cx="114" cy="81" r="4" fill="#9b6b3e"/>
</svg>

